<svg width="23" height="103" viewBox="0 0 23 103" fill="none" xmlns="http://www.w3.org/2000/svg">
<path d="M3.03165 87.9387L11.3139 102.284L19.5961 87.9387L18.5706 87.9387L11.3139 100.508L4.05707 87.9387L3.03165 87.9387Z" fill="#0A142F"/>
<path d="M5.264 87.9387L11.3139 98.4174L17.3637 87.9387L5.264 87.9387Z" fill="#0A142F"/>
<path d="M7.9912 72.1989C7.48741 72.2585 7.09631 72.5005 6.8179 72.9247C6.53949 73.349 6.40029 73.8693 6.40029 74.4858C6.40029 74.9366 6.47321 75.331 6.61904 75.669C6.76487 76.0038 6.96539 76.2656 7.2206 76.4545C7.47581 76.6402 7.76582 76.733 8.09063 76.733C8.36241 76.733 8.59608 76.6683 8.79163 76.5391C8.98386 76.4065 9.14461 76.2375 9.27387 76.032C9.39982 75.8265 9.50422 75.611 9.58708 75.3857C9.66663 75.1603 9.73126 74.9531 9.78097 74.7642L10.0594 73.7301C10.129 73.465 10.2251 73.17 10.3477 72.8452C10.4704 72.517 10.6377 72.2038 10.8499 71.9055C11.0587 71.6039 11.3271 71.3553 11.6553 71.1598C11.9834 70.9643 12.3861 70.8665 12.8634 70.8665C13.4135 70.8665 13.9107 71.0107 14.3548 71.299C14.799 71.584 15.1519 72.0017 15.4138 72.5518C15.6756 73.0987 15.8065 73.7633 15.8065 74.5455C15.8065 75.2746 15.6889 75.906 15.4536 76.4396C15.2182 76.9699 14.8901 77.3875 14.4692 77.6925C14.0483 77.9941 13.5594 78.1648 13.0026 78.2045L13.0026 76.9318C13.387 76.8987 13.7052 76.7694 13.9571 76.544C14.2057 76.3153 14.3913 76.027 14.5139 75.679C14.6332 75.3277 14.6929 74.9498 14.6929 74.5455C14.6929 74.0748 14.6167 73.6522 14.4642 73.2777C14.3084 72.9032 14.093 72.6065 13.8179 72.3878C13.5395 72.169 13.2147 72.0597 12.8435 72.0597C12.5054 72.0597 12.2303 72.1541 12.0182 72.343C11.8061 72.532 11.6337 72.7805 11.5011 73.0888C11.3686 73.397 11.2526 73.7301 11.1531 74.0881L10.7952 75.3409C10.5665 76.1364 10.24 76.7661 9.81577 77.2301C9.39153 77.6941 8.83637 77.9261 8.15029 77.9261C7.58021 77.9261 7.08306 77.772 6.65881 77.4638C6.23126 77.1522 5.89982 76.7346 5.66449 76.2109C5.42586 75.6839 5.30654 75.0956 5.30654 74.446C5.30654 73.7898 5.4242 73.2064 5.65952 72.696C5.89153 72.1856 6.20971 71.7812 6.61407 71.483C7.01842 71.1813 7.47747 71.0223 7.9912 71.0057L7.9912 72.1989ZM15.7867 65.8961C15.7867 66.612 15.6176 67.2285 15.2796 67.7456C14.9415 68.2626 14.4758 68.6603 13.8825 68.9387C13.2893 69.2172 12.6115 69.3564 11.8492 69.3564C11.0736 69.3564 10.3892 69.2138 9.79589 68.9288C9.1993 68.6404 8.73362 68.2394 8.39887 67.7257C8.0608 67.2086 7.89177 66.6054 7.89177 65.916C7.89177 65.3791 7.9912 64.8952 8.19006 64.4643C8.38893 64.0334 8.66734 63.6805 9.02529 63.4054C9.38324 63.1303 9.80086 62.9596 10.2781 62.8933L10.2781 64.0666C9.93012 64.1561 9.62188 64.3549 9.35341 64.6632C9.08163 64.9681 8.94574 65.3791 8.94574 65.8961C8.94574 66.3535 9.06506 66.7546 9.3037 67.0993C9.53902 67.4406 9.87212 67.7074 10.303 67.8997C10.7305 68.0886 11.2327 68.1831 11.8094 68.1831C12.3993 68.1831 12.9131 68.0903 13.3506 67.9047C13.7881 67.7157 14.1278 67.4506 14.3698 67.1092C14.6117 66.7645 14.7327 66.3601 14.7327 65.8961C14.7327 65.5912 14.6796 65.3145 14.5736 65.0659C14.4675 64.8173 14.3151 64.6068 14.1162 64.4345C13.9173 64.2621 13.6787 64.1395 13.4003 64.0666L13.4003 62.8933C13.851 62.9596 14.2571 63.1236 14.6183 63.3855C14.9763 63.644 15.2613 63.987 15.4734 64.4146C15.6823 64.8388 15.7867 65.3327 15.7867 65.8961ZM15.6276 61.1781L7.9912 61.1781L7.9912 60.0446L9.14461 60.0446L9.14461 59.965C8.76677 59.8258 8.46019 59.5739 8.22486 59.2093C7.98954 58.8448 7.87188 58.4338 7.87188 57.9764C7.87188 57.8902 7.87354 57.7825 7.87685 57.6532C7.88017 57.524 7.88514 57.4262 7.89177 57.3599L9.08495 57.3599C9.07501 57.3997 9.06009 57.4908 9.0402 57.6333C9.017 57.7725 9.0054 57.92 9.0054 58.0758C9.0054 58.447 9.08329 58.7785 9.23907 59.0701C9.39153 59.3585 9.60365 59.5872 9.87543 59.7562C10.1439 59.9219 10.4505 60.0048 10.7952 60.0048L15.6276 60.0048L15.6276 61.1781ZM15.7867 53.0993C15.7867 53.7886 15.6226 54.3935 15.2945 54.9139C14.9663 55.4309 14.5073 55.8353 13.9173 56.127C13.3274 56.4153 12.638 56.5595 11.8492 56.5595C11.0537 56.5595 10.3593 56.4153 9.76606 56.127C9.17278 55.8353 8.71208 55.4309 8.38395 54.9139C8.05583 54.3935 7.89177 53.7886 7.89177 53.0993C7.89177 52.4099 8.05583 51.8066 8.38395 51.2896C8.71208 50.7692 9.17278 50.3649 9.76606 50.0765C10.3593 49.7849 11.0537 49.639 11.8492 49.639C12.638 49.639 13.3274 49.7849 13.9173 50.0765C14.5073 50.3649 14.9663 50.7692 15.2945 51.2896C15.6226 51.8066 15.7867 52.4099 15.7867 53.0993ZM14.7327 53.0993C14.7327 52.5756 14.5984 52.1447 14.33 51.8066C14.0615 51.4686 13.7085 51.2183 13.271 51.0559C12.8335 50.8935 12.3596 50.8123 11.8492 50.8123C11.3387 50.8123 10.8631 50.8935 10.4223 51.0559C9.98149 51.2183 9.62519 51.4686 9.35341 51.8066C9.08163 52.1447 8.94574 52.5756 8.94574 53.0993C8.94574 53.6229 9.08163 54.0538 9.35341 54.3919C9.62519 54.7299 9.98149 54.9802 10.4223 55.1426C10.8631 55.305 11.3387 55.3862 11.8492 55.3862C12.3596 55.3862 12.8335 55.305 13.271 55.1426C13.7085 54.9802 14.0615 54.7299 14.33 54.3919C14.5984 54.0538 14.7327 53.6229 14.7327 53.0993ZM5.44574 46.6747L15.6276 46.6747L15.6276 47.848L5.44574 47.848L5.44574 46.6747ZM5.44574 43.3524L15.6276 43.3524L15.6276 44.5257L5.44574 44.5257L5.44574 43.3524ZM15.6276 33.9648L15.6276 37.1069L5.44574 37.1069L5.44574 33.8256C5.44574 32.8379 5.64958 31.9928 6.05725 31.2901C6.4616 30.5875 7.04328 30.0489 7.80228 29.6744C8.55796 29.2998 9.46279 29.1126 10.5168 29.1126C11.5774 29.1126 12.4905 29.3015 13.2561 29.6793C14.0184 30.0572 14.6051 30.6074 15.0161 31.3299C15.4237 32.0524 15.6276 32.9308 15.6276 33.9648ZM14.5338 35.8739L14.5338 34.0444C14.5338 33.2025 14.3714 32.5049 14.0466 31.9513C13.7218 31.3978 13.2594 30.9852 12.6595 30.7134C12.0596 30.4416 11.3454 30.3058 10.5168 30.3058C9.6948 30.3058 8.98717 30.44 8.3939 30.7085C7.79731 30.9769 7.33992 31.378 7.02174 31.9116C6.70024 32.4452 6.53949 33.1097 6.53949 33.9052L6.53949 35.8739L14.5338 35.8739ZM15.7867 24.1012C15.7867 24.7906 15.6226 25.3955 15.2945 25.9158C14.9663 26.4329 14.5073 26.8372 13.9173 27.1289C13.3274 27.4173 12.638 27.5614 11.8492 27.5614C11.0537 27.5614 10.3593 27.4173 9.76606 27.1289C9.17278 26.8372 8.71208 26.4329 8.38395 25.9158C8.05583 25.3955 7.89177 24.7906 7.89177 24.1012C7.89177 23.4118 8.05583 22.8086 8.38395 22.2915C8.71208 21.7712 9.17278 21.3668 9.76605 21.0785C10.3593 20.7868 11.0537 20.641 11.8492 20.641C12.638 20.641 13.3274 20.7868 13.9173 21.0785C14.5073 21.3668 14.9663 21.7712 15.2945 22.2915C15.6226 22.8086 15.7867 23.4118 15.7867 24.1012ZM14.7327 24.1012C14.7327 23.5775 14.5984 23.1467 14.33 22.8086C14.0615 22.4705 13.7085 22.2203 13.271 22.0579C12.8335 21.8955 12.3596 21.8143 11.8492 21.8143C11.3387 21.8143 10.8631 21.8955 10.4223 22.0579C9.98149 22.2203 9.62519 22.4705 9.35341 22.8086C9.08163 23.1467 8.94574 23.5775 8.94574 24.1012C8.94574 24.6249 9.08163 25.0558 9.35341 25.3938C9.62519 25.7319 9.98149 25.9821 10.4223 26.1445C10.8631 26.3069 11.3387 26.3881 11.8492 26.3881C12.3596 26.3881 12.8335 26.3069 13.271 26.1445C13.7085 25.9821 14.0615 25.7319 14.33 25.3938C14.5984 25.0558 14.7327 24.6249 14.7327 24.1012ZM15.6276 17.3796L7.9912 19.7063L7.9912 18.4734L13.8378 16.8228L13.8378 16.7433L7.9912 15.1126L7.9912 13.8597L13.8179 12.2489L13.8179 12.1694L7.9912 10.5188L7.9912 9.28587L15.6276 11.6126L15.6276 12.766L9.76108 14.4364L9.76108 14.5558L15.6276 16.2262L15.6276 17.3796ZM11.0338 6.56143L15.6276 6.56143L15.6276 7.73473L7.9912 7.73473L7.9912 6.60121L9.18438 6.60121L9.18438 6.50178C8.79659 6.3228 8.48504 6.05102 8.24972 5.68643C8.01108 5.32185 7.89176 4.85121 7.89176 4.2745C7.89176 3.75746 7.99783 3.30504 8.20995 2.91726C8.41875 2.52947 8.73694 2.22786 9.16449 2.01243C9.58873 1.79699 10.1257 1.68927 10.7753 1.68927L15.6276 1.68927L15.6276 2.86257L10.8548 2.86257C10.2549 2.86257 9.7876 3.01835 9.45284 3.3299C9.11478 3.64145 8.94574 4.06901 8.94574 4.61257C8.94574 4.9871 9.02694 5.32185 9.18935 5.61683C9.35176 5.9085 9.58873 6.13885 9.90029 6.30788C10.2118 6.47692 10.5897 6.56143 11.0338 6.56143Z" fill="#0A142F"/>
</svg>
